<?xml version="1.0" encoding="UTF-8" standalone="no"?>
<svg
   viewBox="0 0 472.44089 472.44095"
   version="1.1"
   id="svg17"
   sodipodi:docname="logo.svg"
   width="125mm"
   height="125mm"
   inkscape:version="1.1.1 (c3084ef, 2021-09-22)"
   xmlns:inkscape="http://www.inkscape.org/namespaces/inkscape"
   xmlns:sodipodi="http://sodipodi.sourceforge.net/DTD/sodipodi-0.dtd"
   xmlns="http://www.w3.org/2000/svg"
   xmlns:svg="http://www.w3.org/2000/svg">
  <defs
     id="defs21" />
  <sodipodi:namedview
     id="namedview19"
     pagecolor="#ffffff"
     bordercolor="#666666"
     borderopacity="1.0"
     inkscape:pageshadow="2"
     inkscape:pageopacity="0.0"
     inkscape:pagecheckerboard="0"
     showgrid="false"
     units="mm"
     fit-margin-top="0"
     fit-margin-left="0"
     fit-margin-right="0"
     fit-margin-bottom="0"
     inkscape:zoom="0.65269034"
     inkscape:cx="108.01447"
     inkscape:cy="-356.98399"
     inkscape:window-width="2560"
     inkscape:window-height="1324"
     inkscape:window-x="0"
     inkscape:window-y="25"
     inkscape:window-maximized="1"
     inkscape:current-layer="svg17"
     inkscape:document-units="mm" />
  <path
     style="fill:#ff6600"
     d="m 89.046042,421.91416 c -15.98572,-2.95981 -19.21028,-3.94208 -28.42468,-8.65873 -16.24644,-8.31622 -27.74887,-20.60552 -31.01199,-33.13349 -1.94335,-7.46099 -1.17898,-12.43671 2.83095,-18.42848 13.06002,-19.51472 55.87091,-19.421 85.365358,0.18686 12.12408,8.06007 24.19059,22.92536 24.2306,29.85078 0.0198,3.43375 1.88622,2.67338 4.77378,-1.94485 6.99066,-11.18052 74.51094,-128.61508 74.61807,-129.77937 0.0649,-0.70488 -16.92375,-17.11909 -37.75246,-36.47602 -36.39179,-33.8203 -37.93744,-35.12211 -39.58763,-33.34258 -35.65541,38.45013 -41.33623,44.28211 -42.47544,43.60567 -2.315358,-1.37482 -75.566558,-69.68617 -75.566558,-70.47057 0,-0.78019 2.34039,-3.40306 45.9854,-51.53576 l 24.4854,-27.003046 4.344078,3.823802 c 2.38924,2.1031 6.44581,4.52159 9.0146,5.37443 11.53824,3.83071 36.87779,4.80031 44.98138,1.72119 7.39914,-2.81145 18.2517,-10.262842 28.72814,-19.724802 l 9.48431,-8.56591 2.35014,1.84863 c 1.29258,1.01674 8.97132,8.16345 17.06388,15.88158 l 14.71373,14.032952 -15.27668,16.931844 c -8.40217,9.31251 -19.91116,21.98386 -25.57552,28.15856 -5.66437,6.17469 -10.29885,11.62106 -10.29885,12.10303 0,0.48197 4.1625,4.88174 9.25,9.77725 12.74788,12.2668 57.73955,53.83266 58.62169,54.15804 0.81396,0.30022 10.03401,-15.28874 52.68241,-89.07379 l 29.94589,-51.808766 11,0.6842 c 27.09596,1.68536 33.54349,5.050636 46.53591,19.730282 4.28545,4.841974 20.94741,25.441494 22.93957,29.008504 14.86294,24.40374 21.40847,23.53432 46.65782,35.01661 -27.28632,-0.22414 -34.53199,-0.898 -56.1436,-6.47009 -34.70663,-14.6665 -44.59211,-26.6988 -70.05839,-26.83371 -11.32933,1.63007 -13.44414,7.34808 -16.0852,10.30905 -3.33358,3.73738 -21.83774,29.67173 -82.82258,133.67266 -54.56705,93.05628 -71.72494,121.10179 -78.02352,127.53366 -7.6812,7.84375 -14.97025,12.70013 -25,16.65642 -7.33475,2.89323 -9.08104,3.17607 -21.00001,3.40124 -7.149998,0.13508 -14.124998,0.0373 -15.499998,-0.21728 z m 284.984498,-21.6573 c -3.58353,-3.41921 -36.05436,-33.56817 -72.1574,-66.99771 l -65.64191,-60.78096 11.00328,-18.21904 c 6.0518,-10.02046 11.16198,-18.38338 11.35595,-18.58424 0.55523,-0.57496 5.29419,3.64907 34.54962,30.79553 15.07329,13.98668 29.37465,26.67894 31.78082,28.20502 2.40617,1.52609 6.79817,3.27778 9.76,3.89266 5.95159,1.23554 6.68453,1.76703 23.40492,16.972 6.35057,5.775 22.2314,20.14382 35.29073,31.93071 l 23.74424,21.43071 -4.84782,5.06929 c -2.6663,2.78811 -10.6138,11.25679 -17.66112,18.81929 -7.04731,7.5625 -13.09511,13.73503 -13.43955,13.71674 -0.34444,-0.0183 -3.55824,-2.83079 -7.14176,-6.25 z"
     id="path195"
     sodipodi:nodetypes="ssssssssssssscsssscsscsssssscssccccsssssssscssssssscssss" />
</svg>
